<svg xmlns="http://www.w3.org/2000/svg" viewBox="0 0 69.45 174.85"><defs><style>.cls-1{fill:#f3d9a8;}.cls-2{fill:#edc57d;}.cls-3{fill:#999;}.cls-4{fill:#e19f26;}.cls-5{fill:#e7b251;}.cls-6{fill:#333;}</style></defs><g id="Buttons"><path class="cls-1" d="M69.45,42.53V174.85H34.71V47.3H63.43c3.58,0,6.12-2.31,6-4.77Z"/><path class="cls-2" d="M69.42,42.53c.13,2.46-2.41,4.77-6,4.77H34.71V20.56h19L68.62,40.39A3.72,3.72,0,0,1,69.42,42.53Z"/><path class="cls-3" d="M39.92,2.3,53.68,20.56h-19V0A6.45,6.45,0,0,1,39.92,2.3Z"/><path class="cls-4" d="M34.71,47.3V174.85H0V42.69c0,2.4,2.51,4.61,6,4.61Z"/><path class="cls-5" d="M34.71,20.56V47.3H6c-3.49,0-6-2.21-6-4.61a.86.86,0,0,1,0-.16,3.79,3.79,0,0,1,.8-2.14l15-19.83Z"/><path class="cls-6" d="M34.71,0V20.56h-19L29.51,2.3A6.45,6.45,0,0,1,34.71,0Z"/></g></svg>