<svg xmlns="http://www.w3.org/2000/svg" viewBox="0 0 216.51 216.51"><defs><style>.cls-1{fill:#fff;}.cls-2{fill:#f3d9a8;}.cls-3{fill:#edc57d;}.cls-4{fill:#999;}.cls-5{fill:#e19f26;}.cls-6{fill:#e7b251;}.cls-7{fill:#333;}</style></defs><g id="Buttons"><rect class="cls-1" width="216.51" height="216.51" rx="12"/><path class="cls-2" d="M77,95.18l59.84-59.84L161.35,59.9,108.26,113,88,92.69c-2.53-2.53-7.6-1.06-11,2.51Z"/><path class="cls-3" d="M77,95.2c3.38-3.57,8.45-5,11-2.51L108.26,113,70.44,150.82,57,137.4,74.5,98.79A13,13,0,0,1,77,95.2Z"/><path class="cls-4" d="M40.93,173,57,137.4l13.41,13.42L41.36,179.89C39.92,178.48,39.58,176,40.93,173Z"/><path class="cls-5" d="M108.26,113l53.09-53.1L185.9,84.45l-59.62,59.61c3.39-3.39,4.75-8.29,2.27-10.76Z"/><path class="cls-6" d="M70.44,150.82,108.26,113l20.29,20.3c2.48,2.47,1.12,7.37-2.27,10.76a2.5,2.5,0,0,1-.24.22,12.45,12.45,0,0,1-3.59,2.46L83.84,164.22Z"/><path class="cls-7" d="M41.36,179.89l29.08-29.07,13.4,13.4L48.29,180.31C45.29,181.67,42.8,181.33,41.36,179.89Z"/></g></svg>