<svg xmlns="http://www.w3.org/2000/svg" viewBox="0 0 34.72 174.57"><defs><style>.cls-1{fill:#f3d9a8;}.cls-2{fill:#edc57d;}.cls-3{fill:#999;}.cls-4{fill:#e19f26;}.cls-5{fill:#e7b251;}.cls-6{fill:#333;}</style></defs><g id="Buttons"><path class="cls-1" d="M34.72,42.23V174.57H17.36V47H31.71c1.79,0,3.07-2.31,3-4.77Z"/><path class="cls-2" d="M34.71,42.53c.07,2.46-1.21,4.77-3,4.77H17.36V20.56h9.48l7.47,19.83A6.33,6.33,0,0,1,34.71,42.53Z"/><path class="cls-3" d="M20,2.3l6.88,18.26H17.36V0C18.37,0,19.38.76,20,2.3Z"/><path class="cls-4" d="M17.36,47.3V174.57H0V42.69c0,2.4,1.25,4.61,3,4.61Z"/><path class="cls-5" d="M17.36,20.56V47.3H3c-1.75,0-3-2.21-3-4.61a.86.86,0,0,1,0-.16A6.32,6.32,0,0,1,.4,40.39L7.88,20.56Z"/><path class="cls-6" d="M17.36,0V20.56H7.88L14.76,2.3C15.34.76,16.34,0,17.36,0Z"/></g></svg>