<svg xmlns="http://www.w3.org/2000/svg" viewBox="0 0 52.09 84.55"><defs><style>.cls-1{fill:#f3d9a8;}.cls-2{fill:#edc57d;}.cls-3{fill:#999;}.cls-4{fill:#e19f26;}.cls-5{fill:#e7b251;}.cls-6{fill:#333;}</style></defs><g id="Buttons"><path class="cls-1" d="M52.09,42.53v42H26V47.3H47.57a4.56,4.56,0,0,0,4.5-4.77Z"/><path class="cls-2" d="M52.07,42.53a4.56,4.56,0,0,1-4.5,4.77H26V20.56H40.26L51.47,40.39A4.58,4.58,0,0,1,52.07,42.53Z"/><path class="cls-3" d="M29.94,2.3,40.26,20.56H26V0A4.43,4.43,0,0,1,29.94,2.3Z"/><path class="cls-4" d="M26,47.3V84.55H0V42.69A4.56,4.56,0,0,0,4.5,47.3Z"/><path class="cls-5" d="M26,20.56V47.3H4.5A4.56,4.56,0,0,1,0,42.69a.86.86,0,0,1,0-.16,4.58,4.58,0,0,1,.6-2.14L11.82,20.56Z"/><path class="cls-6" d="M26,0V20.56H11.82L22.14,2.3A4.42,4.42,0,0,1,26,0Z"/></g></svg>