<svg xmlns="http://www.w3.org/2000/svg" viewBox="0 0 216.51 216.51"><defs><style>.cls-1{fill:#edc57d;}.cls-1,.cls-2,.cls-3{stroke:#000;stroke-miterlimit:10;stroke-width:1.98px;}.cls-2{fill:#e19f26;}.cls-3{fill:#f3d9a8;}.cls-4{isolation:isolate;font-size:40px;font-family:Karla-Bold, Karla;font-weight:700;letter-spacing:-0.04em;}</style></defs><g id="Buttons"><path class="cls-1" d="M118,43.86A4.46,4.46,0,0,1,116.67,47L65,99.67l-6.16-6.28,51.66-52.68a4.32,4.32,0,0,1,6.16,0A4.5,4.5,0,0,1,118,43.86Z"/><polygon class="cls-2" points="69.17 103.91 65.73 116.99 41.11 91.89 53.94 88.39 58.85 93.39 65.01 99.67 69.17 103.91"/><path class="cls-3" d="M65.77,117,41.16,91.91l-22,13.55a13.88,13.88,0,0,0-2.55,21.45l30.61,31.2a215.22,215.22,0,0,1,9.52-25.7c2.67-5.84,5.73-11.47,9-15.41Z"/><path class="cls-3" d="M26.29,111.83c-6.88,5.84-8.46,16.28-3.52,21.32"/><path class="cls-3" d="M33.38,118.2c-5,8-8.19,17.41-4.49,21.19"/><path class="cls-3" d="M40.47,124.57c-4.8,8.86-7.93,18.54-5.46,21.06"/><path class="cls-3" d="M47.56,130.94c-4.62,9.77-7.66,19.67-6.42,20.93"/><text class="cls-4" transform="translate(80.66 118.61)">Clear <tspan x="0" y="48">Design</tspan></text></g></svg>