<svg xmlns="http://www.w3.org/2000/svg" viewBox="0 0 109.28 57.37"><defs><style>.cls-1,.cls-3{fill:#fff;}.cls-2{fill:#e19f26;stroke-width:4px;}.cls-2,.cls-3{stroke:#f3d9a8;stroke-miterlimit:10;}</style></defs><g id="Buttons"><path class="cls-1" d="M54.65,56.37C34.57,56.1,16.21,40.72,6.34,32.46,4.51,30.92,3,29.63,1.72,28.69c1.24-1,2.79-2.24,4.62-3.78C16.21,16.65,34.57,1.27,54.65,1h.62c22.15,0,39,15.55,48.12,23.9,1.67,1.54,3.08,2.84,4.24,3.79-1.16.94-2.57,2.24-4.24,3.78-9.08,8.35-26,23.9-48.12,23.9Z"/><path d="M55.27,0V2C77,2,93.74,17.38,102.71,25.64c1.27,1.17,2.39,2.19,3.37,3q-1.47,1.29-3.37,3.05C93.74,40,77,55.37,55.27,55.37h-.61C34.94,55.11,16.75,39.87,7,31.69c-1.37-1.15-2.58-2.16-3.64-3,1.06-.84,2.27-1.85,3.64-3C16.75,17.5,34.94,2.26,54.66,2h.61V0m0,0h-.63C29.3.34,7,24,0,28.68,7,33.36,29.3,57,54.64,57.37h.63c27.89,0,47.35-24,54-28.69C102.62,24,83.16,0,55.27,0Z"/><circle class="cls-2" cx="54.64" cy="28.68" r="22.55"/><circle class="cls-3" cx="61.11" cy="14.75" r="4.66"/><circle class="cls-3" cx="68.32" cy="19.03" r="2.4"/></g></svg>