<svg xmlns="http://www.w3.org/2000/svg" viewBox="0 0 87.79 87.79"><defs><style>.cls-1{fill:#e19f26;}.cls-1,.cls-2{stroke:#fff;stroke-miterlimit:10;stroke-width:2px;}.cls-2{fill:#fff;}</style></defs><g id="Buttons"><circle class="cls-1" cx="43.89" cy="43.89" r="42.89"/><path class="cls-2" d="M38.64,28.86A4.79,4.79,0,0,1,40,25.23a5.32,5.32,0,0,1,3.88-1.34,5.39,5.39,0,0,1,3.86,1.34,4.78,4.78,0,0,1,1.4,3.63,4.8,4.8,0,0,1-1.4,3.64,5.39,5.39,0,0,1-3.86,1.33A5.31,5.31,0,0,1,40,32.5,4.82,4.82,0,0,1,38.64,28.86Zm1,11.23h8.49V75.16H39.65Z"/></g></svg>