<svg xmlns="http://www.w3.org/2000/svg" viewBox="0 0 95.64 95.64"><defs><style>.cls-1,.cls-2{fill:#fff;}.cls-1{stroke:#f3d9a8;stroke-width:6.84px;}.cls-1,.cls-3,.cls-4{stroke-miterlimit:10;}.cls-3{stroke:#fff;stroke-width:1.01px;}.cls-4{fill:none;stroke:#000;stroke-width:5.04px;}</style></defs><g id="Buttons"><rect class="cls-1" x="3.42" y="3.42" width="88.8" height="88.8" rx="7.03"/><path class="cls-2" d="M18.18,47a12,12,0,0,1,1.06-1.22l18.3-18.3c.67-.67,8.35-8.29,10.32-10.19L76.63,46c-.22.23-.52.55-.91.94Z"/><path d="M47.86,18.21,75.68,46l-.25.25H19.67l0-.06L38,27.92c.64-.63,7.35-7.3,9.84-9.71m0-1.91c-.44.33-10.42,10.25-10.82,10.65L18.75,45.26a11.3,11.3,0,0,0-1.84,2.39H76c.89-.91,1.49-1.55,1.57-1.65L47.88,16.3Z"/><path class="cls-3" d="M77.59,56.46l-3.46,6A6,6,0,0,0,73,65.51a4.63,4.63,0,1,0,9.25,0A6,6,0,0,0,81,62.44Z"/><line class="cls-4" x1="19.26" y1="27.45" x2="34.23" y2="42.43"/><path d="M40.06,78.15a11.51,11.51,0,0,1-8.2-3.38L19.11,62a10.82,10.82,0,0,1-1.55-1.94,11.64,11.64,0,0,1-.36-11.93H74.81c-3.06,3.12-8,8-8.24,8.32l-18.3,18.3A11.53,11.53,0,0,1,40.06,78.15Z"/><path d="M73.61,48.66c-3.07,3.11-7.19,7.25-7.39,7.45L62.7,59.64,47.92,74.42a11.15,11.15,0,0,1-15.7,0L19.47,61.66A10.05,10.05,0,0,1,18,59.8a11.13,11.13,0,0,1-.48-11.14H73.61m2.4-1H16.91a12.12,12.12,0,0,0,.22,12.7,11.55,11.55,0,0,0,1.62,2L31.51,75.13a12.14,12.14,0,0,0,17.12,0L63.41,60.35l3.52-3.52c.31-.31,6.19-6.22,9.08-9.18Z"/></g></svg>